<svg width="24" height="22" viewBox="0 0 24 22" fill="none" xmlns="http://www.w3.org/2000/svg">
<path d="M11.9995 16.595C15.8289 16.595 19.1784 18.0416 21 20.1999L19.0738 20.9999C17.5909 19.4569 14.9766 18.4319 11.9995 18.4319C9.02231 18.4319 6.40801 19.4569 4.92517 20.9999L3 20.199C4.82165 18.0406 8.17005 16.595 11.9995 16.595ZM11.9995 0.999939C13.3862 0.999939 14.7161 1.48377 15.6967 2.34499C16.6772 3.20621 17.2281 4.37428 17.2281 5.59223V10.1658C17.228 11.3492 16.7078 12.4869 15.7759 13.3416C14.8441 14.1963 13.5725 14.7021 12.2264 14.7535L11.9995 14.7581C10.6128 14.7581 9.28285 14.2742 8.30229 13.413C7.32174 12.5518 6.77087 11.3837 6.77087 10.1658V5.59223C6.77095 4.40883 7.29116 3.27114 8.22302 2.41641C9.15488 1.56167 10.4265 1.05589 11.7726 1.00453L11.9995 0.999939ZM11.9995 2.83686C11.1993 2.83682 10.4293 3.10534 9.84711 3.5875C9.26491 4.06965 8.91449 4.72898 8.86754 5.43058L8.86231 5.59223V10.1658C8.86153 10.883 9.17919 11.5722 9.7478 12.087C10.3164 12.6018 11.0912 12.9016 11.9074 12.9226C12.7237 12.9437 13.5171 12.6843 14.1191 12.1997C14.7211 11.7151 15.0843 11.0435 15.1314 10.3274L15.1366 10.1658V5.59223C15.1366 4.86146 14.8061 4.16062 14.2178 3.64389C13.6295 3.12715 12.8315 2.83686 11.9995 2.83686Z" fill="#7A7A80"/>
</svg>
